<svg xmlns="http://www.w3.org/2000/svg" width="177" height="21" viewBox="0 0 177 21" fill="none"><path fill-rule="evenodd" clip-rule="evenodd" d="M45.8 1.6H41.3C41.3 1.6 38.9 1.5 38.9 3.6C38.9 4.3 38.9 20.8 38.9 20.8C38.9 20.8 45.6 20.6 45.7 15.6C45.8 15 45.8 1.6 45.8 1.6Z" fill="#1D1D1B"></path><path fill-rule="evenodd" clip-rule="evenodd" d="M45.7 8.7C45.7 8.7 47.7 13.4 56.7 13.7C56.9 13.7 57.6 13.7 57.6 13.7H58.6H61C61 13.7 64.2 13.7 64.2 16.7C64.2 17.7 64.2 16.7 64.2 16.7V20.7H71.6C71.6 20.7 71.6 12.7 71.6 12.5C71.6 8.5 62.9 8.7 62.9 8.7H45.7Z" fill="#1D1D1B"></path><path fill-rule="evenodd" clip-rule="evenodd" d="M89.4 7.4C82.8 7.4 82.1 9.6 82 9.6V1.6H89.4C89.4 1.6 89.4 7.2 89.4 7.4Z" fill="#1D1D1B"></path><path fill-rule="evenodd" clip-rule="evenodd" d="M89.4 8.7C89.4 8.7 82 8.5 82 12.5C82 12.7 82 20.7 82 20.7H89.4V16.7C89.4 16.7 89.4 17.7 89.4 16.7V8.7Z" fill="#1D1D1B"></path><path fill-rule="evenodd" clip-rule="evenodd" d="M64.2 7.4C70.8 7.4 71.5 9.6 71.6 9.6V1.6H64.2C64.2 1.6 64.2 7.2 64.2 7.4Z" fill="#1D1D1B"></path><path fill-rule="evenodd" clip-rule="evenodd" d="M120.3 5.4H105.6C105.6 5.4 105.5 15.2 105.5 18C105.5 20.8 101.8 20.7 101.8 20.7H98.4V1.6H124.8H125C125 1.6 131.3 1.2 131.3 8.5C131.3 13.2 127.4 14.4 127.4 14.4C127.4 14.4 125 13.1 122.3 11.8C122.3 11.8 125.3 11.5 125.2 8.4C125.1 5.5 120.3 5.4 120.3 5.4Z" fill="#1D1D1B"></path><path fill-rule="evenodd" clip-rule="evenodd" d="M149.6 14.7C142.4 14.7 141.6 18.5 141.6 18.5C141.6 18.5 141.6 5.1 141.6 2.9C141.6 2.2 142.2 1.5 143 1.5H149.6C149.6 1.6 149.6 14.5 149.6 14.7Z" fill="#1D1D1B"></path><path fill-rule="evenodd" clip-rule="evenodd" d="M168.8 4.8C168.8 5 168.8 13 168.8 13V13.6C168.8 16.2 166.4 16.2 166.4 16.2C166.4 16.2 155.4 16.1 149.6 16.2C143.8 16.3 141.7 20.7 141.7 20.7C141.7 20.7 165 20.7 170.6 20.7C176.2 20.7 176.2 17.7 176.2 17.7V1.6V1C176.2 1 168.8 0.8 168.8 4.8Z" fill="#1D1D1B"></path><path d="M129.6 20.8L135.1 20.7L119 11.8H114.8H108.7C108.7 11.8 121.5 20.7 129.6 20.8Z" fill="#1D1D1B"></path><path d="M26 5.7C25.8 5.7 12.4 5.7 12.4 5.7H8.6C7.3 5.7 7.3 6.7 7.3 6.7C7.3 6.7 7.3 11 7.3 14C7.3 14.5 7.1 14.9 6.7 15.5C4.9 17.8 0.2 19.5 0 19.5V18.1V15.8C0 12 0 6.6 0 4.8C0 1.9 3 1.9 3 1.9H29.7C29.8 1.9 30 5.7 26 5.7Z" fill="#1D1D1B"></path><path d="M29.8 21H18.2H0.200012C0.300012 20.9 4.40001 19.6 7.00001 17.5C7.20001 17.3 7.90001 17.2 8.70001 17.2H9.50001H10.2H12.4C12.4 17.2 25.8 17.2 26 17.2C30 17.1 29.8 21 29.8 21Z" fill="#1D1D1B"></path></svg>