<svg xmlns="http://www.w3.org/2000/svg" xmlns:xlink="http://www.w3.org/1999/xlink" id="Layer_1" x="0px" y="0px" viewBox="0 0 116.2 172.9" style="enable-background:new 0 0 116.2 172.9;" xml:space="preserve"><style type="text/css">	.st0{fill-rule:evenodd;clip-rule:evenodd;}	.st1{clip-path:url(#SVGID_00000024692923376022627590000018262835619154468517_);}</style><g>	<path class="st0" d="M32,155.7h-2.4l0,0c0,0-1.3-0.1-1.3,1.1c0,0.4,0,9.3,0,9.3l0,0c0,0,3.6-0.1,3.7-2.8C32,163,32,155.7,32,155.7z  "></path>	<path class="st0" d="M31.9,159.5L31.9,159.5c0,0,1.1,2.6,6,2.7c0.1,0,0.5,0,0.5,0h0.5h1.3l0,0c0,0,1.7,0,1.7,1.6c0,0.6,0,0,0,0v2.2  h4c0,0,0-4.4,0-4.5c0-2.2-4.7-2.1-4.7-2.1h-9.3V159.5z"></path>	<path class="st0" d="M59.2,158.9c-3.6,0-4,1.2-4,1.2v-4.4h4C59.2,155.7,59.2,158.7,59.2,158.9z"></path>	<path class="st0" d="M59.2,159.5c0,0-4-0.1-4,2.1c0,0.1,0,4.5,0,4.5h4v-2.2c0,0,0,0.6,0,0V159.5z"></path>	<path class="st0" d="M42,158.9c3.6,0,4,1.2,4,1.2v-4.4h-4C42,155.7,42,158.7,42,158.9z"></path>	<path class="st0" d="M79.4,157.8L79.4,157.8h-8c0,0,0,5.3-0.1,6.9c0,1.5-2,1.5-2,1.5h-1.9v-10.4h14.4h0.1c0,0,3.4-0.2,3.4,3.7  c0,2.5-2.1,3.2-2.1,3.2s-1.3-0.7-2.8-1.4c0,0,1.6-0.2,1.6-1.9C82,157.8,79.4,157.8,79.4,157.8z"></path>	<path class="st0" d="M98.8,162.8c-3.9,0-4.3,2.1-4.3,2.1s0-7.3,0-8.5c0-0.4,0.3-0.7,0.8-0.7h3.6C98.8,155.7,98.8,162.7,98.8,162.8z  "></path>	<path class="st0" d="M109.3,157.4c0,0.1,0,4.5,0,4.5v0.3c0,1.4-1.3,1.4-1.3,1.4s-6,0-9.1,0s-4.3,2.4-4.3,2.4s12.7,0,15.7,0  s3-1.6,3-1.6v-8.8v-0.3C113.3,155.4,109.3,155.2,109.3,157.4z"></path>	<path d="M84.5,166.1h3l-8.8-4.9h-2.3h-3.3C73.1,161.2,80,166.1,84.5,166.1z"></path>	<g>		<path d="M17.8,157.9c-0.1,0-7.4,0-7.4,0H8.3c-0.7,0-0.7,0.5-0.7,0.5s0,2.4,0,4c0,0.3-0.1,0.5-0.3,0.8c-1,1.2-3.5,2.2-3.6,2.2v-0.8   v-1.2l0,0c0-2.1,0-5.1,0-6.1c0-1.6,1.6-1.6,1.6-1.6h14.6C19.8,155.8,19.9,157.9,17.8,157.9z"></path>		<path d="M19.8,166.2h-6.3l0,0H3.7c0.1,0,2.3-0.8,3.7-1.9c0.1-0.1,0.5-0.2,0.9-0.2h0.4h0.4h1.2c0,0,7.3,0,7.4,0   C19.9,164.1,19.8,166.2,19.8,166.2z"></path>	</g></g><g>	<defs>		<path id="SVGID_1_" d="M85.9,51.9c7.5-20.5,14.8-37.5,9.6-46c-0.3-0.5-0.7-1-0.8-0.9c-0.3,0.1,0.1,0.3,0.2,1.4   c0.6,4.7,0.2,18.1-16.3,45.3c-15,24.7-19.4,40.1-20.5,48.5c-1.1-8.4-5.5-23.7-20.5-48.5C21,24.4,20.7,11,21.3,6.3   c0.1-1.2,0.5-1.3,0.2-1.4c-0.2-0.1-0.5,0.4-0.8,0.9c-5.2,8.5,2.1,25.6,9.6,46c6.2,16.9,11.5,26.6,12.9,37.5   c4.1,4.9,10.3,16.3,5.7,27c-0.6-1.1-1.4-1.3-2.6-2.1c-3.5-2.2-4.1-4.9-4.4-9.5c-0.2-3.2-3-5.4-2.4-5c3.5,2.1,6.1,4.1,7.3,6.1   c0.7,1.3,1,2.5,1,3.2c0.1,0.3,0.1,0.6,0.2,1c0-0.1,0.1-0.1,0.1-0.2c0,0.1,0,0.3,0,0.4c0.9-2.9,0.5-10-3.1-16.1   c-1.4-2.3-3.2-4.4-5.6-6.1c-0.9-0.6-1.9-1.2-3-1.7c-4.3-2-5.5-5.1-5.5-5.1c-1.3,4.1,1.4,14.3,8.1,18.1c0.1,0,0.2,0.1,0.3,0.1   c0,0,0,0,0,0c2.1,3.2,0.5,6.6,0.6,9.6c0.3,5.3,2.7,6.3,6.6,12.6c4.6,9.2-0.2,10.5,2.9,17.2c1.6,3.5,5.4,4.5,7.2,5.2   c0.5,0.2,0.8,0.4,1.1,0.7c-0.1-1.8-0.4-3.8-2.6-5.1c-3.4-2.1-3.6-6.2-3.7-6.4l-0.2-3.8l1,3.7c0,0.1,1.6,5.3,6.2,5.5   c4.6-0.3,6.2-5.5,6.2-5.5l1-3.7l-0.2,3.8c0,0.2-0.3,4.3-3.7,6.4c-2.2,1.3-2.5,3.3-2.6,5.1c0.3-0.3,0.6-0.6,1.1-0.7   c1.8-0.7,5.6-1.6,7.2-5.2c3.1-6.7-1.8-8,2.9-17.2c3.9-6.3,6.3-7.3,6.6-12.6c0.1-3-1.5-6.4,0.6-9.6c0,0,0,0,0,0   c0.1,0,0.2-0.1,0.3-0.1c6.7-3.8,9.4-14,8.1-18.1c0,0-1.2,3.1-5.5,5.1c-1.1,0.5-2.1,1.1-3,1.7c-2.5,1.7-4.3,3.8-5.7,6.1   c-3.6,6-4,13.2-3.1,16.1c0-0.2,0-0.3,0-0.4c0,0.1,0,0.1,0.1,0.2c0.1-0.3,0.1-0.7,0.2-1c0-0.7,0.3-1.9,1-3.2c1.2-2,3.2-3.7,6.8-5.7   c0,0-1.7,1.5-1.9,4.7c-0.3,4.6-0.9,7.3-4.4,9.5c-1.2,0.8-2,1-2.6,2.1c-4.6-10.7,1.6-22.1,5.7-27C74.4,78.4,79.7,68.8,85.9,51.9z"></path>	</defs>	<clipPath id="SVGID_00000015343910272120351630000017782469910245554073_">		<use xlink:href="#SVGID_1_" style="overflow:visible;"></use>	</clipPath>	<polygon style="clip-path:url(#SVGID_00000015343910272120351630000017782469910245554073_);" points="-24.2,192.6 122.2,192.6   122.2,197 59.8,199.2 46.8,197.6 39,197 -24.2,197  "></polygon>	<polygon style="clip-path:url(#SVGID_00000015343910272120351630000017782469910245554073_);" points="-24.2,187.5 122.2,187.5   122.2,191.9 60.5,193.7 39.4,191.9 -24.2,191.9  "></polygon>	<polygon style="clip-path:url(#SVGID_00000015343910272120351630000017782469910245554073_);" points="-24.2,182.3 37.1,182.4   122.2,182.3 122.2,186.7 59.9,188.5 48.4,187.5 39.5,186.7 -24.2,186.7  "></polygon>	<polygon style="clip-path:url(#SVGID_00000015343910272120351630000017782469910245554073_);" points="-24.2,177.1 122.2,177.1   122.2,181.5 60.4,184.9 50,182.5 37.7,181.6 -24.2,181.5  "></polygon>	<polygon style="clip-path:url(#SVGID_00000015343910272120351630000017782469910245554073_);" points="-24.2,171.9 122.2,171.9   122.2,176.3 60.9,177.9 50.2,177.1 38.2,176.3 -24.2,176.3  "></polygon>	<polygon style="clip-path:url(#SVGID_00000015343910272120351630000017782469910245554073_);" points="-24.2,166.5 122.2,166.5   122.2,170.9 62.1,172.6 51.1,171.9 36.3,170.9 -24.2,170.9  "></polygon>	<polygon style="clip-path:url(#SVGID_00000015343910272120351630000017782469910245554073_);" points="-24.2,161.1 122.2,161.1   122.2,165.4 63.7,167.2 52.1,166.5 34.5,165.4 -24.2,165.4  "></polygon>	<polygon style="clip-path:url(#SVGID_00000015343910272120351630000017782469910245554073_);" points="-24.2,155.5 54.1,155.5   122.2,155.5 122.2,159.9 65.5,161.7 53,161.1 32.2,159.9 -24.2,159.9  "></polygon>	<polygon style="clip-path:url(#SVGID_00000015343910272120351630000017782469910245554073_);" points="-24.2,150 122.2,150   122.2,154.4 67.4,156.3 54.1,155.6 31.4,154.4 -24.2,154.4  "></polygon>	<polygon style="clip-path:url(#SVGID_00000015343910272120351630000017782469910245554073_);" points="-24.2,144.4 122.2,144.4   122.2,148.8 69.1,150.5 55,150 30.5,148.8 -24.2,148.8  "></polygon>	<polygon style="clip-path:url(#SVGID_00000015343910272120351630000017782469910245554073_);" points="-24.2,138.8 122.2,138.8   122.2,143.2 68.1,145.2 56.1,144.4 30.2,143.2 -24.2,143.2  "></polygon>	<polygon style="clip-path:url(#SVGID_00000015343910272120351630000017782469910245554073_);" points="-24.2,133.1 122.2,133.1   122.2,137.5 69.9,139.5 56.9,138.8 30.8,137.5 -24.2,137.5  "></polygon>	<polygon style="clip-path:url(#SVGID_00000015343910272120351630000017782469910245554073_);" points="-24.2,127.3 59.6,127.3   122.2,127.3 122.2,131.7 69.5,133.8 58,133.1 30.7,131.7 -24.2,131.7  "></polygon>	<polygon style="clip-path:url(#SVGID_00000015343910272120351630000017782469910245554073_);" points="-24.2,121.6 122.2,121.6   122.2,126 71.9,128.1 59,127.3 27.3,126 -24.2,126  "></polygon>	<polygon style="clip-path:url(#SVGID_00000015343910272120351630000017782469910245554073_);" points="-24.2,115.7 122.2,115.7   122.2,120.1 74,122 60,121.6 25.5,120.1 -24.2,120.1  "></polygon>	<polygon style="clip-path:url(#SVGID_00000015343910272120351630000017782469910245554073_);" points="-24.2,109.9 122.2,109.9   122.2,114.2 76.1,116.3 61.1,115.7 23.7,114.2 -24.2,114.2  "></polygon>			<rect x="-24.2" y="103.9" style="clip-path:url(#SVGID_00000015343910272120351630000017782469910245554073_);" width="146.4" height="4.4"></rect>	<polygon style="clip-path:url(#SVGID_00000015343910272120351630000017782469910245554073_);" points="-24.2,103.9 122.2,103.9   122.2,108.3 76.5,110.4 62.3,109.9 22.2,108.3 -24.2,108.3  "></polygon>	<polygon style="clip-path:url(#SVGID_00000015343910272120351630000017782469910245554073_);" points="-24.2,98 122.2,98   122.2,102.4 77.4,104.5 63.2,104 21.4,102.4 -24.2,102.4  "></polygon>	<polygon style="clip-path:url(#SVGID_00000015343910272120351630000017782469910245554073_);" points="-24.2,92 122.2,92   122.2,96.4 78.1,98.5 64.1,98 21.4,96.4 -24.2,96.4  "></polygon>	<polygon style="clip-path:url(#SVGID_00000015343910272120351630000017782469910245554073_);" points="-24.2,85.9 122.2,85.9   122.2,90.3 67.4,92.1 32,90.3 -24.2,90.3  "></polygon>	<polygon style="clip-path:url(#SVGID_00000015343910272120351630000017782469910245554073_);" points="-24.2,79.8 122.2,79.8   122.2,84.2 67.8,86 31.2,84.2 -24.2,84.2  "></polygon>			<rect x="-24.2" y="73.6" style="clip-path:url(#SVGID_00000015343910272120351630000017782469910245554073_);" width="146.4" height="4.4"></rect>	<polygon style="clip-path:url(#SVGID_00000015343910272120351630000017782469910245554073_);" points="-24.2,73.6 122.2,73.6   122.2,78 69.8,79.9 29.9,78 -24.2,78  "></polygon>	<polygon style="clip-path:url(#SVGID_00000015343910272120351630000017782469910245554073_);" points="-24.2,67.4 122.2,67.4   122.2,71.8 70.5,73.7 28.6,71.8 -24.2,71.8  "></polygon>	<polygon style="clip-path:url(#SVGID_00000015343910272120351630000017782469910245554073_);" points="-24.2,61.2 122.2,61.2   122.2,65.6 71.3,67.5 69.3,67.5 27.5,65.6 -24.2,65.6  "></polygon>	<polygon style="clip-path:url(#SVGID_00000015343910272120351630000017782469910245554073_);" points="-24.2,54.9 122.2,54.9   122.2,59.3 73,61.3 26.1,59.3 -24.2,59.3  "></polygon>	<polygon style="clip-path:url(#SVGID_00000015343910272120351630000017782469910245554073_);" points="-24.2,48.6 122.2,48.6   122.2,53 78.2,55.2 71.6,54.9 24.9,53 -24.2,53  "></polygon>	<polygon style="clip-path:url(#SVGID_00000015343910272120351630000017782469910245554073_);" points="-24.2,42.2 122.2,42.2   122.2,46.6 76.5,48.7 72.6,48.6 22.9,46.6 -24.2,46.6  "></polygon>	<polygon style="clip-path:url(#SVGID_00000015343910272120351630000017782469910245554073_);" points="-24.2,35.8 122.2,35.8   122.2,40.2 80.1,42.4 73.7,42.2 22.2,40.2 -24.2,40.2  "></polygon>	<polygon style="clip-path:url(#SVGID_00000015343910272120351630000017782469910245554073_);" points="-24.2,29.3 122.2,29.3   122.2,33.7 78,35.9 20.6,33.7 -24.2,33.7  "></polygon>	<polygon style="clip-path:url(#SVGID_00000015343910272120351630000017782469910245554073_);" points="-24.2,22.8 122.2,22.8   122.2,27.2 83.4,29.6 76,29.3 19.3,27.2 -24.2,27.2  "></polygon>	<polygon style="clip-path:url(#SVGID_00000015343910272120351630000017782469910245554073_);" points="-24.2,16.2 122.2,16.2   122.2,20.6 81.2,22.9 18.1,20.6 -24.2,20.6  "></polygon>	<polygon style="clip-path:url(#SVGID_00000015343910272120351630000017782469910245554073_);" points="-24.2,9.7 122.2,9.7   122.2,14.1 81.6,16.4 16.8,14.1 -24.2,14.1  "></polygon>	<polygon style="clip-path:url(#SVGID_00000015343910272120351630000017782469910245554073_);" points="-24.2,3.1 122.2,3.1   122.2,7.5 82.4,9.8 16.1,7.5 -24.2,7.5  "></polygon>	<polygon style="clip-path:url(#SVGID_00000015343910272120351630000017782469910245554073_);" points="-24.2,-3.6 122.2,-3.6   122.2,0.8 84,3.2 14.7,0.8 -24.2,0.8  "></polygon>	<polygon style="clip-path:url(#SVGID_00000015343910272120351630000017782469910245554073_);" points="-24.2,-10.3 122.2,-10.3   122.2,-5.9 84.7,-3.5 13.7,-5.9 -24.2,-5.9  "></polygon>	<polygon style="clip-path:url(#SVGID_00000015343910272120351630000017782469910245554073_);" points="42.8,218.8 89.7,-52.3   109.1,-42.2 61.1,237.2  "></polygon></g></svg>